<svg width="41" height="40" viewBox="0 0 41 40" fill="none" xmlns="http://www.w3.org/2000/svg">
<circle cx="20.5" cy="20" r="20" fill="#092729"/>
<g clip-path="url(#clip0_805_3794)">
<path d="M22.4199 15.2573C22.5081 15.274 22.5925 15.3073 22.668 15.356L22.7734 15.4399L26.9414 19.6079L27.0283 19.7144C27.1039 19.8277 27.1455 19.9618 27.1455 20.1001C27.1455 20.2384 27.104 20.3725 27.0283 20.4858L26.9414 20.5913L22.7754 24.7583L22.7744 24.7573C22.7426 24.7901 22.7084 24.8204 22.6709 24.8462L22.5508 24.9126C22.5083 24.9309 22.464 24.9451 22.4189 24.9546L22.2822 24.9692C22.1899 24.97 22.0981 24.9524 22.0127 24.9175C21.9702 24.9001 21.9297 24.8783 21.8916 24.853L21.7842 24.7651C21.7191 24.6999 21.6677 24.6219 21.6328 24.5366C21.598 24.4514 21.5803 24.3601 21.5811 24.2681L21.5957 24.1304C21.6052 24.0855 21.6195 24.0418 21.6377 23.9995L21.7041 23.8784C21.7301 23.8408 21.7599 23.8059 21.793 23.7739L24.7715 20.7954H14.5459C14.4077 20.7954 14.2735 20.7537 14.1602 20.6782L14.0537 20.5913C13.9235 20.461 13.8507 20.2843 13.8506 20.1001C13.8506 19.9157 13.9233 19.7383 14.0537 19.6079C14.1841 19.4776 14.3616 19.4048 14.5459 19.4048H24.7715L21.792 16.4243L21.791 16.4233C21.6644 16.2922 21.5941 16.1164 21.5957 15.9341L21.6104 15.7993C21.6377 15.6676 21.7024 15.5453 21.7988 15.4487L21.9043 15.3628C22.0162 15.2879 22.1486 15.2468 22.2852 15.2456L22.4199 15.2573Z" fill="white" stroke="white" stroke-width="0.2"/>
</g>
<defs>
<clipPath id="clip0_805_3794">
<rect width="14.2857" height="14.2857" fill="white" transform="translate(13.3564 12.9578)"/>
</clipPath>
</defs>
</svg>
